<svg width="42" height="42" viewBox="0 0 42 42" fill="none" xmlns="http://www.w3.org/2000/svg">
  <!-- soft shadow layer -->
  <path opacity="0.15" fill-rule="evenodd" clip-rule="evenodd" d="M21 4.5C16.8579 4.5 13.5 7.85786 13.5 12V20C13.5 24.1421 16.8579 27.5 21 27.5C25.1421 27.5 28.5 24.1421 28.5 20V12C28.5 7.85786 25.1421 4.5 21 4.5ZM12 18.5C12 18.0858 11.6642 17.75 11.25 17.75C10.8358 17.75 10.5 18.0858 10.5 18.5V20C10.5 25.5179 14.6084 30.0767 20 30.7815V33.75H16.5C16.0858 33.75 15.75 34.0858 15.75 34.5C15.75 34.9142 16.0858 35.25 16.5 35.25H25.5C25.9142 35.25 26.25 34.9142 26.25 34.5C26.25 34.0858 25.9142 33.75 25.5 33.75H22V30.7815C27.3916 30.0767 31.5 25.5179 31.5 20V18.5C31.5 18.0858 31.1642 17.75 30.75 17.75C30.3358 17.75 30 18.0858 30 18.5V20C30 24.9706 25.9706 29 21 29C16.0294 29 12 24.9706 12 20V18.5Z" fill="url(#paint0_linear)"></path>

  <!-- main icon -->
  <path d="M21 4.5C16.8579 4.5 13.5 7.85786 13.5 12V20C13.5 24.1421 16.8579 27.5 21 27.5C25.1421 27.5 28.5 24.1421 28.5 20V12C28.5 7.85786 25.1421 4.5 21 4.5ZM15 12C15 8.68629 17.6863 6 21 6C24.3137 6 27 8.68629 27 12V20C27 23.3137 24.3137 26 21 26C17.6863 26 15 23.3137 15 20V12ZM17.75 11.25C17.75 10.8358 18.0858 10.5 18.5 10.5H23.5C23.9142 10.5 24.25 10.8358 24.25 11.25C24.25 11.6642 23.9142 12 23.5 12H18.5C18.0858 12 17.75 11.6642 17.75 11.25ZM17.75 14.25C17.75 13.8358 18.0858 13.5 18.5 13.5H23.5C23.9142 13.5 24.25 13.8358 24.25 14.25C24.25 14.6642 23.9142 15 23.5 15H18.5C18.0858 15 17.75 14.6642 17.75 14.25ZM17.75 17.25C17.75 16.8358 18.0858 16.5 18.5 16.5H23.5C23.9142 16.5 24.25 16.8358 24.25 17.25C24.25 17.6642 23.9142 18 23.5 18H18.5C18.0858 18 17.75 17.6642 17.75 17.25ZM12 18.5C12 18.0858 11.6642 17.75 11.25 17.75C10.8358 17.75 10.5 18.0858 10.5 18.5V20C10.5 25.5179 14.6084 30.0767 20 30.7815V33.75H16.5C16.0858 33.75 15.75 34.0858 15.75 34.5C15.75 34.9142 16.0858 35.25 16.5 35.25H25.5C25.9142 35.25 26.25 34.9142 26.25 34.5C26.25 34.0858 25.9142 33.75 25.5 33.75H22V30.7815C27.3916 30.0767 31.5 25.5179 31.5 20V18.5C31.5 18.0858 31.1642 17.75 30.75 17.75C30.3358 17.75 30 18.0858 30 18.5V20C30 24.9706 25.9706 29 21 29C16.0294 29 12 24.9706 12 20V18.5Z" fill="url(#paint1_linear)" stroke="url(#paint2_linear)" stroke-width="0.25"></path>

  <defs>
    <linearGradient id="paint0_linear" x1="3.26667" y1="1" x2="37.8" y2="39.1334" gradientUnits="userSpaceOnUse">
      <stop offset="0.259336" stop-color="#FFDB6E"></stop>
      <stop offset="1" stop-color="#FFBC5E"></stop>
    </linearGradient>
    <linearGradient id="paint1_linear" x1="3.26667" y1="1" x2="37.8" y2="39.1334" gradientUnits="userSpaceOnUse">
      <stop offset="0.259336" stop-color="#FFDB6E"></stop>
      <stop offset="1" stop-color="#FFBC5E"></stop>
    </linearGradient>
    <linearGradient id="paint2_linear" x1="3.26667" y1="1" x2="37.8" y2="39.1334" gradientUnits="userSpaceOnUse">
      <stop offset="0.259336" stop-color="#FFDB6E"></stop>
      <stop offset="1" stop-color="#FFBC5E"></stop>
    </linearGradient>
  </defs>
</svg>